<svg width="1440" height="960" viewBox="0 0 1440 960" fill="none" xmlns="http://www.w3.org/2000/svg">
  <rect width="1440" height="960" rx="48" fill="#0E1724"/>
  <rect x="48" y="48" width="1344" height="864" rx="36" fill="url(#paint0_linear_115_2)" stroke="rgba(255,255,255,0.08)"/>
  <rect x="108" y="108" width="404" height="24" rx="12" fill="#7CECDF" fill-opacity="0.24"/>
  <rect x="108" y="164" width="540" height="102" rx="24" fill="#F5F7FA" fill-opacity="0.06"/>
  <rect x="108" y="300" width="248" height="54" rx="18" fill="#12766D"/>
  <rect x="108" y="390" width="620" height="18" rx="9" fill="#FFFFFF" fill-opacity="0.12"/>
  <rect x="108" y="428" width="520" height="18" rx="9" fill="#FFFFFF" fill-opacity="0.08"/>
  <rect x="108" y="466" width="460" height="18" rx="9" fill="#FFFFFF" fill-opacity="0.08"/>
  <rect x="824" y="152" width="492" height="524" rx="32" fill="#111D2B" stroke="rgba(255,255,255,0.08)"/>
  <rect x="872" y="208" width="396" height="192" rx="26" fill="url(#paint1_linear_115_2)"/>
  <rect x="872" y="436" width="182" height="112" rx="22" fill="#F5F7FA" fill-opacity="0.05"/>
  <rect x="1084" y="436" width="184" height="112" rx="22" fill="#F5F7FA" fill-opacity="0.05"/>
  <rect x="872" y="578" width="396" height="44" rx="18" fill="#F5F7FA" fill-opacity="0.05"/>
  <rect x="108" y="762" width="1224" height="96" rx="28" fill="url(#paint2_linear_115_2)" fill-opacity="0.64"/>
  <defs>
    <linearGradient id="paint0_linear_115_2" x1="48" y1="48" x2="1294" y2="912" gradientUnits="userSpaceOnUse">
      <stop stop-color="#142132"/>
      <stop offset="1" stop-color="#0A1019"/>
    </linearGradient>
    <linearGradient id="paint1_linear_115_2" x1="872" y1="208" x2="1268" y2="400" gradientUnits="userSpaceOnUse">
      <stop stop-color="#12766D"/>
      <stop offset="1" stop-color="#38BDF8"/>
    </linearGradient>
    <linearGradient id="paint2_linear_115_2" x1="108" y1="762" x2="1332" y2="858" gradientUnits="userSpaceOnUse">
      <stop stop-color="#12766D"/>
      <stop offset="1" stop-color="#0F1723"/>
    </linearGradient>
  </defs>
</svg>
