<svg width="1200" height="1440" viewBox="0 0 1200 1440" fill="none" xmlns="http://www.w3.org/2000/svg">
  <rect width="1200" height="1440" rx="80" fill="#F8F0E6"/>
  <rect x="68" y="64" width="1064" height="1312" rx="56" fill="url(#bg)"/>
  <circle cx="916" cy="226" r="160" fill="#D8E8E2"/>
  <circle cx="234" cy="1206" r="168" fill="#E6D0B5"/>
  <rect x="154" y="166" width="892" height="604" rx="44" fill="#FFF9F2"/>
  <rect x="220" y="242" width="760" height="420" rx="28" fill="#E4EEEA"/>
  <rect x="288" y="316" width="404" height="250" rx="22" fill="#243042"/>
  <rect x="732" y="328" width="166" height="18" rx="9" fill="#C7B39A"/>
  <rect x="732" y="372" width="210" height="18" rx="9" fill="#D5E4DF"/>
  <rect x="732" y="416" width="184" height="18" rx="9" fill="#E5C9A9"/>
  <rect x="732" y="460" width="132" height="18" rx="9" fill="#D5E4DF"/>
  <rect x="154" y="828" width="892" height="448" rx="44" fill="#FFFDF9"/>
  <rect x="238" y="910" width="728" height="40" rx="20" fill="#243042"/>
  <rect x="238" y="988" width="560" height="22" rx="11" fill="#A79F93"/>
  <rect x="238" y="1036" width="494" height="22" rx="11" fill="#C8C0B4"/>
  <rect x="238" y="1084" width="612" height="22" rx="11" fill="#DDD4C8"/>
  <rect x="238" y="1146" width="214" height="70" rx="28" fill="#1F7B70"/>
  <defs>
    <linearGradient id="bg" x1="120" y1="96" x2="1064" y2="1320" gradientUnits="userSpaceOnUse">
      <stop stop-color="#FFF9F2"/>
      <stop offset="1" stop-color="#F0E0D1"/>
    </linearGradient>
  </defs>
</svg>
