<svg width="320" height="320" viewBox="0 0 320 320" fill="none" xmlns="http://www.w3.org/2000/svg">
  <rect width="320" height="320" rx="48" fill="#F6EEE3"/>
  <circle cx="160" cy="160" r="94" fill="url(#paint0_radial)"/>
  <rect x="94" y="84" width="132" height="150" rx="34" fill="#FFF9F2" stroke="#D7E8E4" stroke-width="3"/>
  <rect x="115" y="107" width="90" height="66" rx="18" fill="#EAF4F2"/>
  <circle cx="140" cy="141" r="10" fill="#1F7B70"/>
  <circle cx="180" cy="141" r="10" fill="#1F7B70"/>
  <path d="M132 183C138.5 194.333 148 200 160.5 200C173 200 182.167 194.333 188 183" stroke="#1F7B70" stroke-width="7" stroke-linecap="round"/>
  <rect x="135" y="226" width="50" height="18" rx="9" fill="#1F7B70" opacity="0.15"/>
  <circle cx="92" cy="103" r="18" fill="#7DB9D0" opacity="0.42"/>
  <circle cx="234" cy="229" r="14" fill="#CB9664" opacity="0.34"/>
  <path d="M73 202L88 186" stroke="#CB9664" stroke-width="6" stroke-linecap="round"/>
  <path d="M232 96L246 110" stroke="#7DB9D0" stroke-width="6" stroke-linecap="round"/>
  <defs>
    <radialGradient id="paint0_radial" cx="0" cy="0" r="1" gradientUnits="userSpaceOnUse" gradientTransform="translate(160 160) rotate(90) scale(94)">
      <stop stop-color="#FFFFFF"/>
      <stop offset="1" stop-color="#E9F4F1"/>
    </radialGradient>
  </defs>
</svg>
