<svg width="900" height="1200" viewBox="0 0 900 1200" fill="none" xmlns="http://www.w3.org/2000/svg">
  <rect width="900" height="1200" rx="60" fill="#F8EFE4"/>
  <rect x="54" y="54" width="792" height="1092" rx="40" fill="url(#bg)"/>
  <circle cx="666" cy="180" r="116" fill="#D8E7E2"/>
  <rect x="132" y="130" width="636" height="760" rx="32" fill="#FFF9F0"/>
  <rect x="192" y="210" width="516" height="458" rx="24" fill="#E2EDE8"/>
  <rect x="258" y="286" width="218" height="322" rx="110" fill="#BF7553"/>
  <circle cx="370" cy="286" r="78" fill="#F0D7BE"/>
  <rect x="518" y="328" width="126" height="16" rx="8" fill="#D1AA7E"/>
  <rect x="518" y="372" width="148" height="16" rx="8" fill="#C5D8D2"/>
  <rect x="518" y="416" width="112" height="16" rx="8" fill="#E3C8A6"/>
  <rect x="180" y="940" width="540" height="112" rx="26" fill="#FFFDF8"/>
  <rect x="226" y="982" width="226" height="16" rx="8" fill="#223247"/>
  <rect x="226" y="1020" width="330" height="12" rx="6" fill="#B3ABA0"/>
  <defs>
    <linearGradient id="bg" x1="84" y1="78" x2="810" y2="1116" gradientUnits="userSpaceOnUse">
      <stop stop-color="#FFF8F1"/>
      <stop offset="1" stop-color="#F0DECB"/>
    </linearGradient>
  </defs>
</svg>
