<svg width="1400" height="1100" viewBox="0 0 1400 1100" fill="none" xmlns="http://www.w3.org/2000/svg">
  <rect width="1400" height="1100" rx="72" fill="#F7EEE3"/>
  <rect x="58" y="58" width="1284" height="984" rx="42" fill="url(#bg)"/>
  <rect x="110" y="104" width="1180" height="78" rx="28" fill="#FFF9F1"/>
  <circle cx="160" cy="143" r="10" fill="#F08B7C"/>
  <circle cx="194" cy="143" r="10" fill="#F0C369"/>
  <circle cx="228" cy="143" r="10" fill="#6AC491"/>
  <rect x="286" y="124" width="318" height="38" rx="19" fill="#EEF4F1"/>
  <rect x="110" y="214" width="1180" height="740" rx="34" fill="#FFFDF8"/>
  <rect x="166" y="268" width="540" height="360" rx="28" fill="#DDEBE7"/>
  <rect x="764" y="270" width="280" height="26" rx="13" fill="#D4A97D"/>
  <rect x="764" y="324" width="236" height="18" rx="9" fill="#C5D8D2"/>
  <rect x="764" y="366" width="272" height="18" rx="9" fill="#E4C9A8"/>
  <rect x="764" y="408" width="198" height="18" rx="9" fill="#C5D8D2"/>
  <rect x="764" y="480" width="438" height="198" rx="28" fill="#F6EEE4"/>
  <rect x="806" y="530" width="206" height="18" rx="9" fill="#233247"/>
  <rect x="806" y="572" width="308" height="14" rx="7" fill="#A69F95"/>
  <rect x="166" y="688" width="1040" height="212" rx="28" fill="#FFF8EE"/>
  <rect x="214" y="744" width="290" height="20" rx="10" fill="#233247"/>
  <rect x="214" y="788" width="416" height="14" rx="7" fill="#B1A89D"/>
  <rect x="884" y="734" width="272" height="92" rx="30" fill="#1F7B70"/>
  <defs>
    <linearGradient id="bg" x1="92" y1="82" x2="1290" y2="1028" gradientUnits="userSpaceOnUse">
      <stop stop-color="#FFF8F0"/>
      <stop offset="1" stop-color="#F1E0CF"/>
    </linearGradient>
  </defs>
</svg>
